<svg width="144" height="37" viewBox="0 0 144 37" fill="none" xmlns="http://www.w3.org/2000/svg">
<path d="M17.6968 34.251C13.4645 34.251 9.4859 32.6021 6.49523 29.6118C3.50456 26.6176 1.85547 22.6395 1.85547 18.4078C1.85547 14.176 3.50456 10.2017 6.49523 7.20756C9.48975 4.21726 13.4645 2.56836 17.6968 2.56836C21.9291 2.56836 25.9077 4.21726 28.8983 7.20756C31.889 10.1979 33.5381 14.176 33.5381 18.4078C33.5381 22.6395 31.889 26.6176 28.8983 29.6079C25.9077 32.5983 21.9291 34.2471 17.6968 34.2471V34.251Z" stroke="url(#paint0_linear_7_412)" stroke-width="1.88548"/>
<path d="M10.4206 14.4445C10.2951 14.5664 10.1735 14.692 10.0557 14.8215C7.96156 17.0988 6.87839 20.0502 7.00381 23.1425C7.12923 26.231 8.44804 29.091 10.717 31.1855C12.8682 33.1734 15.6274 34.2511 18.5387 34.2511H18.5463C18.7059 34.2511 18.8655 34.2473 19.0252 34.2397C22.1075 34.114 24.9579 32.7926 27.0521 30.519C29.1462 28.2455 30.2294 25.2903 30.104 22.1981C29.9786 19.1096 28.6598 16.2534 26.3908 14.1551C24.4905 12.3995 22.1303 11.3522 19.5611 11.1313" stroke="url(#paint1_linear_7_412)" stroke-width="1.88548" stroke-linecap="round"/>
<path d="M53.9026 27.5854L46.6833 7.77568H50.755L55.462 21.4057C55.539 21.5982 55.616 21.8196 55.693 22.0699C55.77 22.3202 55.847 22.5608 55.924 22.7918C56.001 23.0036 56.0684 23.1961 56.1262 23.3694H56.2705C56.3283 23.2154 56.386 23.0325 56.4438 22.8207C56.5208 22.6089 56.5978 22.3876 56.6748 22.1565C56.7518 21.9063 56.8288 21.6656 56.9058 21.4346L61.5839 7.77568H65.4824L58.2631 27.5854H53.9026ZM72.1557 27.932C70.5386 27.932 69.191 27.6528 68.1129 27.0945C67.0348 26.517 66.2263 25.6411 65.6872 24.4667C65.1482 23.2924 64.8787 21.8004 64.8787 19.9907C64.8787 18.1619 65.1482 16.6699 65.6872 15.5148C66.2263 14.3404 67.0348 13.4741 68.1129 12.9158C69.191 12.3383 70.5386 12.0495 72.1557 12.0495C73.6188 12.0495 74.8413 12.3287 75.8231 12.8869C76.8242 13.426 77.575 14.2634 78.0755 15.3993C78.5761 16.5351 78.8263 18.0078 78.8263 19.8175V20.8571H68.4883C68.5268 21.8004 68.6712 22.5993 68.9215 23.2539C69.1717 23.8892 69.5568 24.3705 70.0766 24.6977C70.6156 25.0058 71.3183 25.1598 72.1846 25.1598C72.6274 25.1598 73.0413 25.102 73.4263 24.9865C73.8113 24.871 74.1482 24.6977 74.437 24.4667C74.7258 24.2164 74.9472 23.9084 75.1012 23.5426C75.2745 23.1769 75.3611 22.7533 75.3611 22.272H78.8263C78.8263 23.2346 78.6531 24.0721 78.3066 24.7844C77.9793 25.4967 77.5076 26.0838 76.8916 26.5459C76.2948 27.0079 75.5921 27.3544 74.7835 27.5854C73.975 27.8165 73.099 27.932 72.1557 27.932ZM68.5461 18.3736H75.1589C75.1589 17.7383 75.0819 17.1993 74.9279 16.7565C74.7932 16.3137 74.591 15.9479 74.3215 15.6592C74.0712 15.3704 73.7632 15.1682 73.3974 15.0527C73.0317 14.918 72.6177 14.8506 72.1557 14.8506C71.4049 14.8506 70.7696 14.9757 70.2498 15.226C69.7493 15.4763 69.3642 15.8613 69.0947 16.3811C68.8252 16.9009 68.6423 17.5651 68.5461 18.3736ZM79.5097 27.5854L84.9386 19.7597L79.8851 12.396H84.1589L87.1622 17.103H87.3354L90.3964 12.396H94.4103L89.328 19.6731L94.6991 27.5854H90.483L87.1044 22.3298H86.9311L83.5236 27.5854H79.5097ZM96.2844 10.057V6.70722H99.8075V10.057H96.2844ZM96.2844 27.5854V12.396H99.8075V27.5854H96.2844ZM109.74 27.932C108.084 27.932 106.698 27.6528 105.582 27.0945C104.465 26.517 103.628 25.6411 103.069 24.4667C102.511 23.2924 102.232 21.8004 102.232 19.9907C102.232 18.1619 102.511 16.6699 103.069 15.5148C103.628 14.3404 104.465 13.4741 105.582 12.9158C106.698 12.3383 108.084 12.0495 109.74 12.0495C111.415 12.0495 112.801 12.3383 113.898 12.9158C115.015 13.4741 115.852 14.3404 116.41 15.5148C116.969 16.6699 117.248 18.1619 117.248 19.9907C117.248 21.8004 116.969 23.2924 116.41 24.4667C115.852 25.6411 115.015 26.517 113.898 27.0945C112.801 27.6528 111.415 27.932 109.74 27.932ZM109.74 25.0443C110.664 25.0443 111.405 24.871 111.963 24.5245C112.541 24.1587 112.955 23.6196 113.205 22.9073C113.475 22.1758 113.609 21.271 113.609 20.1929V19.7886C113.609 18.7105 113.475 17.8153 113.205 17.103C112.955 16.3715 112.541 15.8324 111.963 15.4859C111.405 15.1201 110.664 14.9372 109.74 14.9372C108.816 14.9372 108.065 15.1201 107.487 15.4859C106.929 15.8324 106.515 16.3715 106.246 17.103C105.995 17.8153 105.87 18.7105 105.87 19.7886V20.1929C105.87 21.271 105.995 22.1758 106.246 22.9073C106.515 23.6196 106.929 24.1587 107.487 24.5245C108.065 24.871 108.816 25.0443 109.74 25.0443ZM119.664 27.5854V12.396H122.609L122.898 14.4174H123.1C123.447 13.9554 123.851 13.5511 124.313 13.2046C124.794 12.8388 125.333 12.5597 125.93 12.3672C126.546 12.1554 127.22 12.0495 127.951 12.0495C128.914 12.0495 129.761 12.2228 130.493 12.5693C131.243 12.9158 131.831 13.4741 132.254 14.2442C132.678 15.0142 132.889 16.0442 132.889 17.334V27.5854H129.338V17.9693C129.338 17.4303 129.27 16.9875 129.135 16.641C129.02 16.2752 128.837 15.9864 128.587 15.7747C128.356 15.5437 128.067 15.38 127.72 15.2838C127.374 15.1875 126.989 15.1394 126.565 15.1394C125.93 15.1394 125.353 15.2934 124.833 15.6014C124.332 15.9094 123.928 16.333 123.62 16.872C123.331 17.411 123.187 18.0367 123.187 18.749V27.5854H119.664Z" fill="white"/>
<defs>
<linearGradient id="paint0_linear_7_412" x1="17.6968" y1="2.56836" x2="17.6968" y2="34.251" gradientUnits="userSpaceOnUse">
<stop stop-color="#97B6EB"/>
<stop offset="1" stop-color="#C4AFAD"/>
</linearGradient>
<linearGradient id="paint1_linear_7_412" x1="18.5539" y1="11.1313" x2="18.5539" y2="34.2511" gradientUnits="userSpaceOnUse">
<stop stop-color="#97B6EB"/>
<stop offset="1" stop-color="#C4AFAD"/>
</linearGradient>
</defs>
</svg>
